# xmcd CD database file
#
# Track frame offsets:
#	183
#	27863
#	52168
#	71385
#	99405
#	115558
#	136280
#
# Disc length: 2132 seconds
#
# Revision: 0
# Processed by: cddbd v1.5.2PL0 Copyright (c) Steve Scherf et al.
# Submitted via: CDex 1.70beta2
#
DISCID=56085207
DTITLE=Linda Sharrock& Eric  Watson - Listen to the Night
DYEAR=1994
DGENRE=Jazz
TTITLE0=Lover Man
TTITLE1=Calling You (theme song from the film "Bagdad Cafe")
TTITLE2=Ooh Boy!
TTITLE3=You Don't Know What Love Is
TTITLE4=Welcome
TTITLE5=My One And Only Love
TTITLE6=The Bystander (dedicated to Roman Polansky)
EXTD=YEAR: 1994
EXTT0=
EXTT1=
EXTT2=
EXTT3=
EXTT4=
EXTT5=
EXTT6=
PLAYORDER=
